<svg width="16" height="16" viewBox="0 0 16 16" fill="none" xmlns="http://www.w3.org/2000/svg">
<path d="M7 10.333C7 9.78074 7.43173 9.33301 7.96427 9.33301H8.03573C8.56827 9.33301 9 9.78074 9 10.333C9 10.8853 8.56827 11.333 8.03573 11.333H7.96427C7.43173 11.333 7 10.8853 7 10.333Z" stroke="#949FA8"/>
<path d="M8.00033 14.6667C10.3936 14.6667 12.3337 12.7266 12.3337 10.3333C12.3337 7.9401 10.3936 6 8.00033 6C5.60709 6 3.66699 7.9401 3.66699 10.3333C3.66699 12.7266 5.60709 14.6667 8.00033 14.6667Z" stroke="#949FA8"/>
<path d="M6.00033 6.33301L3.66699 1.33301" stroke="#949FA8"/>
<path d="M10 6.33301L12.3333 1.33301" stroke="#949FA8"/>
<path d="M9.99967 1.33301L9.33301 2.99967" stroke="#949FA8"/>
<path d="M8.33301 5.99967L6.33301 1.33301" stroke="#949FA8"/>
</svg>
