<svg width="18" height="18" viewBox="0 0 18 18" fill="none" xmlns="http://www.w3.org/2000/svg">
<path d="M15.524 3.4341C15.1436 3.05344 14.6918 2.75148 14.1946 2.54546C13.6974 2.33944 13.1645 2.2334 12.6262 2.2334C12.088 2.2334 11.5551 2.33944 11.0579 2.54546C10.5607 2.75148 10.1089 3.05344 9.72846 3.4341L8.93883 4.22373L8.1492 3.4341C7.38066 2.66556 6.33829 2.2338 5.25141 2.2338C4.16453 2.2338 3.12217 2.66556 2.35362 3.4341C1.58508 4.20264 1.15332 5.24501 1.15332 6.33189C1.15332 7.41877 1.58508 8.46114 2.35362 9.22968L3.14325 10.0193L8.93883 15.8149L14.7344 10.0193L15.524 9.22968C15.9047 8.8492 16.2067 8.39745 16.4127 7.90024C16.6187 7.40303 16.7247 6.87009 16.7247 6.33189C16.7247 5.79368 16.6187 5.26075 16.4127 4.76354C16.2067 4.26633 15.9047 3.81458 15.524 3.4341Z" stroke="#0092FF" stroke-linecap="round" stroke-linejoin="round"/>
</svg>
