<svg width="18" height="18" viewBox="0 0 18 18" fill="none" xmlns="http://www.w3.org/2000/svg">
<g opacity="0.6" clip-path="url(#clip0_14_2041)">
<path d="M9.00684 0C13.9812 0 18.0136 4.03248 18.0137 9.00684C18.0137 13.9813 13.9813 18.0137 9.00684 18.0137C4.03248 18.0136 0 13.9812 0 9.00684C9.68934e-05 4.03254 4.03254 9.68961e-05 9.00684 0ZM12.6826 5.41504C12.3459 5.42916 11.8266 5.61252 9.33008 6.65039C8.44621 7.01516 6.6919 7.75875 4.06836 8.90918C3.64817 9.07731 3.42391 9.24527 3.39551 9.39941C3.35342 9.70806 3.80211 9.80688 4.36328 9.98926C4.82626 10.1436 5.44392 10.3262 5.7666 10.3262C6.0611 10.3261 6.38347 10.2133 6.74805 9.96094C9.20323 8.30544 10.4666 7.46422 10.5508 7.4502C10.6068 7.4362 10.6764 7.42201 10.7324 7.46387C10.7885 7.50596 10.7744 7.59011 10.7744 7.61816C10.731 7.81549 8.4215 9.90177 8.29199 10.0449C7.78693 10.564 7.21184 10.8873 8.0957 11.4766C8.86704 11.9814 9.31607 12.3043 10.1016 12.8232C10.6065 13.1459 11.0133 13.538 11.5322 13.4961C11.7707 13.468 12.0231 13.2437 12.1494 12.5703C12.4581 10.9849 13.0335 7.51949 13.1738 6.10254C13.1878 5.97633 13.1742 5.82204 13.1602 5.75195C13.1461 5.68181 13.1173 5.58377 13.0332 5.51367C12.921 5.42968 12.7527 5.41504 12.6826 5.41504Z" fill="white"/>
</g>
<defs>
<clipPath id="clip0_14_2041">
<rect width="18" height="18" fill="white"/>
</clipPath>
</defs>
</svg>
